# xmcd
# Track frame offsets:
# 182
# 6915
# 11937
# 22627
# 28785
# 43327
# 54382
# 65897
# 74020
# 83732
# 96992
# 107120
# 114330
# 122607
# 132662
# 148447
#
# Disc length: 2268 seconds
# Revision: 0
# Processed by: cddbd v1.4PL0 Copyright (c) Steve Scherf et al.
# Submitted via: VisiTrax 2.9.5.180 - For more info visit www.synapsa.com
#
DISCID=ee08da10
DTITLE=Marty Robbins - In Concert
DYEAR=1995
DGENRE=
TTITLE0=Ribbons of darkness
TTITLE1=A white sports coat (and a pink carnation)
TTITLE2=Devil woman
TTITLE3=Big iron
TTITLE4=Don't worry
TTITLE5=Touch me with magic
TTITLE6=Jenny
TTITLE7=That's alright, mama
TTITLE8=Love me
TTITLE9=Big boss man
TTITLE10=Among my souvenirs
TTITLE11=Foggu mountin breakdown
TTITLE12=Jambalaya
TTITLE13=Chime bells
TTITLE14=My woman, my woman, my wife
TTITLE15=El Paso
EXTD=
EXTT0=
EXTT1=
EXTT2=
EXTT3=
EXTT4=
EXTT5=
EXTT6=
EXTT7=
EXTT8=
EXTT9=
EXTT10=
EXTT11=
EXTT12=
EXTT13=
EXTT14=
EXTT15=
PLAYORDER=
